<mxfile host="app.diagrams.net" agent="Mozilla/5.0 (Windows NT 10.0; Win64; x64) AppleWebKit/537.36 (KHTML, like Gecko) Chrome/132.0.0.0 Safari/537.36 Edg/132.0.0.0" version="26.0.13">
  <diagram name="Page-1" id="g43uq-0RhptV3G3ulu3o">
    <mxGraphModel dx="2066" dy="2284" grid="1" gridSize="10" guides="1" tooltips="1" connect="1" arrows="1" fold="1" page="1" pageScale="1" pageWidth="827" pageHeight="1169" math="0" shadow="0">
      <root>
        <mxCell id="0" />
        <mxCell id="1" parent="0" />
        <mxCell id="vfGWResDEGmkJYUrqxpX-1" value="" style="whiteSpace=wrap;strokeWidth=2;fontSize=15;" vertex="1" parent="1">
          <mxGeometry x="436" width="330" height="1242" as="geometry" />
        </mxCell>
        <mxCell id="vfGWResDEGmkJYUrqxpX-2" value="" style="whiteSpace=wrap;strokeWidth=2;fontSize=15;" vertex="1" parent="1">
          <mxGeometry x="20" width="396" height="1242" as="geometry" />
        </mxCell>
        <mxCell id="vfGWResDEGmkJYUrqxpX-3" value="初始化 SynergyAnalyzer" style="whiteSpace=wrap;strokeWidth=2;fontSize=15;" vertex="1" parent="1">
          <mxGeometry x="130" y="70" width="230" height="54" as="geometry" />
        </mxCell>
        <mxCell id="vfGWResDEGmkJYUrqxpX-4" value="玩家修改阵营和 SynergyContext" style="whiteSpace=wrap;strokeWidth=2;fontSize=15;" vertex="1" parent="1">
          <mxGeometry x="115" y="149" width="260" height="78" as="geometry" />
        </mxCell>
        <mxCell id="vfGWResDEGmkJYUrqxpX-5" value="分析本地羁绊并显示" style="whiteSpace=wrap;strokeWidth=2;fontSize=15;" vertex="1" parent="1">
          <mxGeometry x="69" y="277" width="204" height="54" as="geometry" />
        </mxCell>
        <mxCell id="vfGWResDEGmkJYUrqxpX-6" value="玩家是否点击开始游戏?" style="rhombus;strokeWidth=2;whiteSpace=wrap;fontSize=15;" vertex="1" parent="1">
          <mxGeometry x="135" y="360" width="220" height="130" as="geometry" />
        </mxCell>
        <mxCell id="vfGWResDEGmkJYUrqxpX-33" style="edgeStyle=orthogonalEdgeStyle;rounded=0;orthogonalLoop=1;jettySize=auto;html=1;entryX=0;entryY=0.5;entryDx=0;entryDy=0;" edge="1" parent="1" source="vfGWResDEGmkJYUrqxpX-7" target="vfGWResDEGmkJYUrqxpX-10">
          <mxGeometry relative="1" as="geometry" />
        </mxCell>
        <mxCell id="vfGWResDEGmkJYUrqxpX-7" value="发送开始指令和 Context 到服务端" style="whiteSpace=wrap;strokeWidth=2;fontSize=15;" vertex="1" parent="1">
          <mxGeometry x="115" y="546" width="260" height="78" as="geometry" />
        </mxCell>
        <mxCell id="vfGWResDEGmkJYUrqxpX-8" value="接收并显示最终羁绊" style="whiteSpace=wrap;strokeWidth=2;fontSize=15;" vertex="1" parent="1">
          <mxGeometry x="130" y="692" width="204" height="54" as="geometry" />
        </mxCell>
        <mxCell id="vfGWResDEGmkJYUrqxpX-9" value="初始化 SynergyAnalyzer" style="whiteSpace=wrap;strokeWidth=2;fontSize=15;" vertex="1" parent="1">
          <mxGeometry x="494.5" y="70" width="230" height="54" as="geometry" />
        </mxCell>
        <mxCell id="vfGWResDEGmkJYUrqxpX-10" value="接收开始指令和 Context" style="whiteSpace=wrap;strokeWidth=2;fontSize=15;" vertex="1" parent="1">
          <mxGeometry x="498" y="558" width="233" height="54" as="geometry" />
        </mxCell>
        <mxCell id="vfGWResDEGmkJYUrqxpX-11" value="分析羁绊，生成 SynergyInstance Array，同步到客户端" style="whiteSpace=wrap;strokeWidth=2;fontSize=15;" vertex="1" parent="1">
          <mxGeometry x="484.5" y="680" width="260" height="78" as="geometry" />
        </mxCell>
        <mxCell id="vfGWResDEGmkJYUrqxpX-28" style="edgeStyle=orthogonalEdgeStyle;rounded=0;orthogonalLoop=1;jettySize=auto;html=1;entryX=0.5;entryY=0;entryDx=0;entryDy=0;exitX=0.5;exitY=1;exitDx=0;exitDy=0;fontSize=15;" edge="1" parent="1" source="vfGWResDEGmkJYUrqxpX-11" target="vfGWResDEGmkJYUrqxpX-13">
          <mxGeometry relative="1" as="geometry">
            <mxPoint x="601" y="984" as="sourcePoint" />
          </mxGeometry>
        </mxCell>
        <mxCell id="vfGWResDEGmkJYUrqxpX-32" style="edgeStyle=orthogonalEdgeStyle;rounded=0;orthogonalLoop=1;jettySize=auto;html=1;entryX=1;entryY=0.5;entryDx=0;entryDy=0;exitX=0;exitY=0.5;exitDx=0;exitDy=0;fontSize=15;" edge="1" parent="1" source="vfGWResDEGmkJYUrqxpX-11" target="vfGWResDEGmkJYUrqxpX-8">
          <mxGeometry relative="1" as="geometry" />
        </mxCell>
        <mxCell id="vfGWResDEGmkJYUrqxpX-13" value="根据羁绊逻辑应用效果" style="whiteSpace=wrap;strokeWidth=2;fontSize=15;" vertex="1" parent="1">
          <mxGeometry x="504.5" y="820" width="220" height="54" as="geometry" />
        </mxCell>
        <mxCell id="vfGWResDEGmkJYUrqxpX-14" value="" style="curved=1;startArrow=none;endArrow=block;exitX=0.5;exitY=1;entryX=0.5;entryY=0;rounded=0;fontSize=15;" edge="1" parent="1" source="vfGWResDEGmkJYUrqxpX-3" target="vfGWResDEGmkJYUrqxpX-4">
          <mxGeometry relative="1" as="geometry">
            <Array as="points" />
          </mxGeometry>
        </mxCell>
        <mxCell id="vfGWResDEGmkJYUrqxpX-15" value="" style="curved=1;startArrow=none;endArrow=block;exitX=0.33;exitY=1;entryX=0.5;entryY=0;rounded=0;fontSize=15;" edge="1" parent="1" source="vfGWResDEGmkJYUrqxpX-4" target="vfGWResDEGmkJYUrqxpX-5">
          <mxGeometry relative="1" as="geometry">
            <Array as="points">
              <mxPoint x="171" y="252" />
            </Array>
          </mxGeometry>
        </mxCell>
        <mxCell id="vfGWResDEGmkJYUrqxpX-16" value="" style="curved=1;startArrow=none;endArrow=block;exitX=0.5;exitY=1;entryX=0.23;entryY=0;rounded=0;fontSize=15;" edge="1" parent="1" source="vfGWResDEGmkJYUrqxpX-5" target="vfGWResDEGmkJYUrqxpX-6">
          <mxGeometry relative="1" as="geometry">
            <Array as="points">
              <mxPoint x="171" y="356" />
            </Array>
          </mxGeometry>
        </mxCell>
        <mxCell id="vfGWResDEGmkJYUrqxpX-17" value="否" style="curved=1;startArrow=none;endArrow=block;exitX=0.77;exitY=0;entryX=0.67;entryY=1;rounded=0;fontSize=15;" edge="1" parent="1" source="vfGWResDEGmkJYUrqxpX-6" target="vfGWResDEGmkJYUrqxpX-4">
          <mxGeometry relative="1" as="geometry">
            <Array as="points">
              <mxPoint x="318" y="356" />
              <mxPoint x="318" y="252" />
            </Array>
          </mxGeometry>
        </mxCell>
        <mxCell id="vfGWResDEGmkJYUrqxpX-18" value="是" style="curved=1;startArrow=none;endArrow=block;exitX=0.5;exitY=1;entryX=0.5;entryY=-0.01;rounded=0;fontSize=15;" edge="1" parent="1" source="vfGWResDEGmkJYUrqxpX-6" target="vfGWResDEGmkJYUrqxpX-7">
          <mxGeometry relative="1" as="geometry">
            <Array as="points" />
          </mxGeometry>
        </mxCell>
        <mxCell id="vfGWResDEGmkJYUrqxpX-21" value="" style="curved=1;startArrow=none;endArrow=block;exitX=0.5;exitY=0.99;entryX=0.5;entryY=-0.01;rounded=0;fontSize=15;" edge="1" parent="1" source="vfGWResDEGmkJYUrqxpX-10" target="vfGWResDEGmkJYUrqxpX-11">
          <mxGeometry relative="1" as="geometry">
            <Array as="points" />
          </mxGeometry>
        </mxCell>
        <mxCell id="vfGWResDEGmkJYUrqxpX-26" value="客户端" style="text;html=1;align=center;verticalAlign=middle;whiteSpace=wrap;rounded=0;fontSize=15;" vertex="1" parent="1">
          <mxGeometry x="200" width="60" height="30" as="geometry" />
        </mxCell>
        <mxCell id="vfGWResDEGmkJYUrqxpX-27" value="DS" style="text;html=1;align=center;verticalAlign=middle;whiteSpace=wrap;rounded=0;fontSize=15;" vertex="1" parent="1">
          <mxGeometry x="569" width="60" height="30" as="geometry" />
        </mxCell>
      </root>
    </mxGraphModel>
  </diagram>
</mxfile>
